<svg width="15" height="13" viewBox="0 0 15 13" fill="none" xmlns="http://www.w3.org/2000/svg">
<path d="M0.959991 8.67175V4.33587C0.959991 3.7609 1.21285 3.20948 1.66294 2.80291C2.11302 2.39634 2.72347 2.16794 3.35999 2.16794H12.48L11.712 1.64763C11.6616 1.61347 11.6191 1.57067 11.587 1.52167C11.5548 1.47268 11.5337 1.41845 11.5248 1.36208C11.5159 1.30571 11.5194 1.24831 11.535 1.19315C11.5507 1.13799 11.5782 1.08616 11.616 1.04061C11.6538 0.995056 11.7012 0.956679 11.7554 0.927669C11.8097 0.898658 11.8697 0.879583 11.9321 0.87153C11.9945 0.863478 12.0581 0.866606 12.1191 0.880738C12.1802 0.894869 12.2376 0.919726 12.288 0.95389L14.208 2.25465C14.2676 2.29504 14.316 2.34741 14.3493 2.40762C14.3826 2.46782 14.4 2.53421 14.4 2.60152C14.4 2.66884 14.3826 2.73522 14.3493 2.79543C14.316 2.85564 14.2676 2.90801 14.208 2.94839L12.288 4.24916C12.2049 4.30545 12.1038 4.33587 12 4.33587C11.9255 4.33587 11.852 4.3202 11.7853 4.2901C11.7187 4.26 11.6607 4.21629 11.616 4.16244C11.5396 4.07044 11.5068 3.95481 11.5248 3.84097C11.5428 3.72713 11.6101 3.62441 11.712 3.55542L12.48 3.03511H3.35999C2.97808 3.03511 2.61181 3.17216 2.34176 3.4161C2.07171 3.66004 1.91999 3.99089 1.91999 4.33587V8.67175C1.91999 8.78675 1.86942 8.89703 1.7794 8.97834C1.68939 9.05966 1.5673 9.10534 1.43999 9.10534C1.31269 9.10534 1.1906 9.05966 1.10058 8.97834C1.01056 8.89703 0.959991 8.78675 0.959991 8.67175ZM13.92 4.76946C13.7927 4.76946 13.6706 4.81514 13.5806 4.89646C13.4906 4.97777 13.44 5.08806 13.44 5.20305V9.53893C13.44 9.88391 13.2883 10.2148 13.0182 10.4587C12.7482 10.7026 12.3819 10.8397 12 10.8397H2.87999L3.64799 10.3194C3.74983 10.2504 3.81716 10.1477 3.83517 10.0338C3.85317 9.92 3.82037 9.80436 3.74399 9.71236C3.66761 9.62037 3.5539 9.55955 3.42787 9.54329C3.30185 9.52702 3.17383 9.55665 3.07199 9.62565L1.15199 10.9264C1.09238 10.9668 1.04399 11.0192 1.01067 11.0794C0.977341 11.1396 0.959991 11.206 0.959991 11.2733C0.959991 11.3406 0.977341 11.407 1.01067 11.4672C1.04399 11.5274 1.09238 11.5798 1.15199 11.6201L3.07199 12.9209C3.15508 12.9772 3.25613 13.0076 3.35999 13.0076C3.43451 13.0076 3.508 12.992 3.57465 12.9619C3.6413 12.9318 3.69928 12.888 3.74399 12.8342C3.82037 12.7422 3.85317 12.6266 3.83517 12.5127C3.81716 12.3989 3.74983 12.2962 3.64799 12.2272L2.87999 11.7069H12C12.6365 11.7069 13.247 11.4785 13.697 11.0719C14.1471 10.6653 14.4 10.1139 14.4 9.53893V5.20305C14.4 5.08806 14.3494 4.97777 14.2594 4.89646C14.1694 4.81514 14.0473 4.76946 13.92 4.76946Z" fill="#41ABF9"/>
</svg>
