<svg width="13" height="12" viewBox="0 0 13 12" fill="none" xmlns="http://www.w3.org/2000/svg">
<path d="M10.2611 0.337769H2.5126C1.359 0.337769 0.420502 1.18554 0.420502 2.22757V6.81495C0.420502 7.85701 1.35902 8.70478 2.5126 8.70478H3.42589V10.1518C3.42589 10.553 3.66213 10.9014 4.05784 11.0836C4.22804 11.162 4.40842 11.2008 4.58738 11.2008C4.82446 11.2008 5.05905 11.1327 5.26393 10.9984L8.76358 8.70478H10.2611C11.4147 8.70478 12.3532 7.85701 12.3532 6.81495V2.22757C12.3532 1.18552 11.4147 0.337769 10.2611 0.337769ZM11.5549 6.81495C11.5549 7.45935 10.9745 7.98362 10.2611 7.98362H8.63405C8.54984 7.98361 8.46778 8.00767 8.39963 8.05235L4.79507 10.4147C4.68011 10.4901 4.54708 10.4995 4.42052 10.4412C4.29395 10.3829 4.22427 10.2801 4.22427 10.1518V8.3442C4.22427 8.14507 4.04554 7.98362 3.82509 7.98362H2.51262C1.79924 7.98362 1.21888 7.45935 1.21888 6.81495V2.22757C1.21888 1.58317 1.79926 1.05893 2.51262 1.05893H10.2611C10.9745 1.05893 11.5549 1.58319 11.5549 2.22757V6.81495Z" fill="#838594"/>
</svg>
