<svg width="12" height="11" viewBox="0 0 12 11" xmlns="http://www.w3.org/2000/svg">
  <path
    d="M11.1245 1.59563C10.5326 0.980015 9.71152 0.640991 8.8125 0.640991C7.54809 0.640991 6.74759 1.33322 6.29871 1.91394C6.18225 2.06463 6.08318 2.21573 6 2.35792C5.91682 2.21573 5.81777 2.06463 5.70129 1.91394C5.25241 1.33322 4.45191 0.640991 3.1875 0.640991C2.28848 0.640991 1.4674 0.980036 0.875508 1.59565C0.310945 2.1829 0 2.9694 0 3.81026C0 4.72556 0.389836 5.57688 1.22684 6.48936C1.97489 7.30491 3.05107 8.14555 4.29727 9.11898C4.76163 9.48173 5.24184 9.85684 5.75309 10.2669L5.76844 10.2792C5.83472 10.3324 5.91736 10.359 6 10.359C6.08264 10.359 6.16528 10.3324 6.23156 10.2792L6.24691 10.2669C6.75816 9.85684 7.23837 9.48175 7.70281 9.11894C8.94893 8.14557 10.0251 7.30493 10.7732 6.48936C11.6102 5.57685 12 4.72556 12 3.81026C12 2.9694 11.6891 2.1829 11.1245 1.59563ZM7.24671 8.62841C6.8464 8.94109 6.43441 9.26291 6 9.60909C5.56561 9.26295 5.1536 8.94111 4.75322 8.62837C2.31434 6.72328 0.703125 5.46471 0.703125 3.81026C0.703125 3.12641 0.95168 2.49125 1.40302 2.02179C1.85953 1.54701 2.49326 1.28552 3.1875 1.28552C4.15146 1.28552 4.77459 1.82989 5.12756 2.28657C5.44418 2.69614 5.60939 3.10903 5.66573 3.26752C5.68872 3.33218 5.73343 3.38853 5.79347 3.42848C5.85352 3.46843 5.92581 3.48995 6 3.48995C6.07419 3.48995 6.14648 3.46843 6.20653 3.42848C6.26657 3.38853 6.31128 3.33218 6.33427 3.26752C6.39061 3.10903 6.55582 2.69614 6.87244 2.28654C7.22541 1.82989 7.84854 1.28552 8.8125 1.28552C9.50674 1.28552 10.1405 1.54701 10.597 2.02179C11.0483 2.49125 11.2969 3.12641 11.2969 3.81026C11.2969 5.46471 9.68566 6.72328 7.24671 8.62841Z"
    fill="#F9595F" 
  />
</svg>
