<svg width="12" height="10" viewBox="0 0 12 10" fill="none" xmlns="http://www.w3.org/2000/svg">
<path d="M10.9834 1.58985C10.566 1.09455 9.9765 0.740344 9.30948 0.584132C8.64246 0.427919 7.93668 0.478768 7.30551 0.72851C6.74059 0.948723 6.23675 1.32 5.82812 1.81271C5.4195 1.3188 4.91566 0.947519 4.35074 0.72851C3.71957 0.478768 3.01378 0.427919 2.34677 0.584132C1.67975 0.740344 1.09022 1.09455 0.672891 1.58985C0.232797 2.11075 0.000213623 2.76175 0.000213623 3.47226C0.000213623 4.49478 0.675291 5.61657 2.00651 6.80774C3.09127 7.77798 4.37315 8.57258 5.04049 8.95976C5.27563 9.0957 5.54895 9.16795 5.82812 9.16795C6.1073 9.16795 6.38062 9.0957 6.61576 8.95976C7.28257 8.57258 8.56498 7.77798 9.64974 6.80774C10.981 5.61705 11.656 4.49478 11.656 3.47226C11.656 2.76175 11.4235 2.11075 10.9834 1.58985Z" fill="#F9595F"/>
</svg>
