<svg width="15" height="13" viewBox="0 0 15 13" fill="none" xmlns="http://www.w3.org/2000/svg">
<path d="M0.959991 8.67177V4.33589C0.959991 3.76092 1.21285 3.20949 1.66294 2.80293C2.11302 2.39636 2.72347 2.16795 3.35999 2.16795H12.48L11.712 1.64765C11.6616 1.61348 11.6191 1.57068 11.587 1.52169C11.5548 1.47269 11.5337 1.41846 11.5248 1.36209C11.5159 1.30573 11.5194 1.24833 11.535 1.19317C11.5507 1.13801 11.5782 1.08617 11.616 1.04062C11.6538 0.995071 11.7012 0.956694 11.7554 0.927684C11.8097 0.898674 11.8697 0.879598 11.9321 0.871545C11.9945 0.863493 12.0581 0.866622 12.1191 0.880753C12.1802 0.894884 12.2376 0.919741 12.288 0.953905L14.208 2.25467C14.2676 2.29506 14.316 2.34743 14.3493 2.40763C14.3826 2.46784 14.4 2.53423 14.4 2.60154C14.4 2.66885 14.3826 2.73524 14.3493 2.79544C14.316 2.85565 14.2676 2.90802 14.208 2.94841L12.288 4.24917C12.2049 4.30546 12.1038 4.33589 12 4.33589C11.9255 4.33589 11.852 4.32022 11.7853 4.29011C11.7187 4.26001 11.6607 4.2163 11.616 4.16245C11.5396 4.07046 11.5068 3.95482 11.5248 3.84098C11.5428 3.72714 11.6101 3.62443 11.712 3.55543L12.48 3.03513H3.35999C2.97808 3.03513 2.61181 3.17217 2.34176 3.41611C2.07171 3.66005 1.91999 3.99091 1.91999 4.33589V8.67177C1.91999 8.78676 1.86942 8.89705 1.7794 8.97836C1.68939 9.05967 1.5673 9.10536 1.43999 9.10536C1.31269 9.10536 1.1906 9.05967 1.10058 8.97836C1.01056 8.89705 0.959991 8.78676 0.959991 8.67177ZM13.92 4.76948C13.7927 4.76948 13.6706 4.81516 13.5806 4.89647C13.4906 4.97779 13.44 5.08807 13.44 5.20306V9.53894C13.44 9.88393 13.2883 10.2148 13.0182 10.4587C12.7482 10.7027 12.3819 10.8397 12 10.8397H2.87999L3.64799 10.3194C3.74983 10.2504 3.81716 10.1477 3.83517 10.0338C3.85317 9.92001 3.82037 9.80437 3.74399 9.71238C3.66761 9.62038 3.5539 9.55956 3.42787 9.5433C3.30185 9.52704 3.17383 9.55666 3.07199 9.62566L1.15199 10.9264C1.09238 10.9668 1.04399 11.0192 1.01067 11.0794C0.977341 11.1396 0.959991 11.206 0.959991 11.2733C0.959991 11.3406 0.977341 11.407 1.01067 11.4672C1.04399 11.5274 1.09238 11.5798 1.15199 11.6202L3.07199 12.9209C3.15508 12.9772 3.25613 13.0076 3.35999 13.0076C3.43451 13.0076 3.508 12.992 3.57465 12.9619C3.6413 12.9318 3.69928 12.8881 3.74399 12.8342C3.82037 12.7422 3.85317 12.6266 3.83517 12.5127C3.81716 12.3989 3.74983 12.2962 3.64799 12.2272L2.87999 11.7069H12C12.6365 11.7069 13.247 11.4785 13.697 11.0719C14.1471 10.6653 14.4 10.1139 14.4 9.53894V5.20306C14.4 5.08807 14.3494 4.97779 14.2594 4.89647C14.1694 4.81516 14.0473 4.76948 13.92 4.76948Z" fill="#838594"/>
</svg>
