<svg width="24" height="24" viewBox="0 0 24 24" fill="none" xmlns="http://www.w3.org/2000/svg">
<path d="M11.0108 5.53089H9.83883V6.7029H11.0108V5.53089ZM10.6358 6.3279H10.2138V5.90589H10.6358V6.3279ZM21.8797 15.5065V14.9821H22.3201V14.5207H22.7344V8.87087H22.3201V8.45139H21.1481V8.87087H20.7339V13.1809H20.346V7.06703H19.9317V6.64759H18.7597V7.06703H18.3455V11.0836H17.9575V8.87087H17.5433V8.45139H16.3713V8.87087H15.957V12.4233H16.3713V12.8848H16.8117V13.4092H18.3455V17.3392H9.38002V15.1449H10.2294V14.4108H11.0265V12.7014H11.5009V13.5614H12.6729V11.4665H11.0265V10.1217H14.4766V8.88676H11.9178V8.46475H15.3156V5.53093H14.4766V4.73392H8.98402V5.53093H8.14509V9.74668H7.23806V10.6067H6.48877V11.4666H5.75409V12.3265H4.22044V11.4455H3.36052V10.6485H2.50055V8.94957H1.26562V13.6557H2.12559V14.4527H2.98556V15.2497H3.84548V16.1306H4.70545V17.3391H1.45312V17.7141H4.70536V19.2661H6.8002V18.0312H5.94023V17.714H8.14509V19.2661H10.2399V18.0311H9.37997V17.714H18.3455V19.266H20.346V17.714H22.5469V17.339H20.346V15.5064H21.8797V15.5065ZM6.80025 17.3391V16.8122H7.28517V17.3391H6.80025ZM9.86498 18.4063V18.8912H8.52014V17.3392H7.66017V16.4373H6.42525V17.3392H5.56528V18.4063H6.42525V18.8912H5.08041V15.7556H4.22044V14.8747H3.36052V14.0777H2.50055V13.2807H1.64062V9.32462H2.12559V11.0235H2.98556V11.8205H3.84548V12.7014H6.12914V11.8415H6.86381V10.9816H7.61311V10.1216H8.52014V5.90584H9.35906V5.10882H14.1017V5.90584H14.9407V8.08965H11.5429V9.26167H14.1017V9.74659H10.6515V11.8414H12.2979V13.1863H11.8759V12.3264H10.6515V14.0357H9.85448V14.7698H9.00506V18.4062H9.86498V18.4063ZM19.971 18.8912H18.7205V13.0341H17.1867V12.5097H16.7463V12.0483H16.332V9.24582H16.7463V8.82634H17.1683V9.24582H17.5825V11.4585H18.7205V7.44198H19.1347V7.02254H19.5567V7.44198H19.971V13.5559H21.1089V9.24582H21.5231V8.82634H21.9451V9.24582H22.3594V14.1457H21.9451V14.6071H21.5047V15.1315H19.9709V18.8912H19.971ZM1.45312 18.8912H2.17692V19.2662H1.45312V18.8912ZM12.8387 18.8912H13.657V19.2662H12.8387V18.8912ZM2.8058 18.0834H3.89677V18.4584H2.8058V18.0834ZM15.2511 18.0834H16.7402V18.4584H15.2511V18.0834ZM21.2383 18.8912H22.0567V19.2662H21.2383V18.8912Z" fill="black"/>
</svg>
